<mxfile host="app.diagrams.net" modified="2024-04-26T11:18:19.780Z" agent="Mozilla/5.0 (Windows NT 10.0; Win64; x64) AppleWebKit/537.36 (KHTML, like Gecko) Chrome/124.0.0.0 Safari/537.36 Edg/124.0.0.0" version="24.1.0" etag="AOuwlt5d1nwORYfPKG1h" type="github">
  <diagram name="Page-1" id="qxPsp6bO4gqZJ156D1bM">
    <mxGraphModel>
      <root>
        <mxCell id="0" />
        <mxCell id="1" parent="0" />
      </root>
    </mxGraphModel>
  </diagram>
</mxfile>
